<svg width="1440" height="1667" viewBox="0 0 1440 1667" fill="none" xmlns="http://www.w3.org/2000/svg">
<g id="Desktop - 1" clip-path="url(#clip0_1_3)">
<g id="Group 2">
<path id="Polygon 1" d="M0 6.61581C0 4.03761 3.03725 2.66034 4.97667 4.35909L19.792 17.3359C21.8752 19.1606 20.5846 22.5926 17.8153 22.5926H3C1.34314 22.5926 0 21.2494 0 19.5926L0 6.61581Z" fill="black"/>
<path id="Polygon 2" d="M33.5525 1.76926C34.6888 0.760035 36.4004 0.760034 37.5367 1.76926L54.9753 17.2569C57.0384 19.0891 55.7424 22.5 52.9832 22.5H18.106C15.3468 22.5 14.0508 19.0891 16.1138 17.2569L33.5525 1.76926Z" fill="black"/>
<path id="Polygon 4" d="M68.7825 1.76926C69.9189 0.760035 71.6304 0.760034 72.7668 1.76926L90.2054 17.2569C92.2684 19.0891 90.9724 22.5 88.2133 22.5H53.336C50.5768 22.5 49.2809 19.0891 51.3439 17.2569L68.7825 1.76926Z" fill="black"/>
<path id="Polygon 5" d="M104.013 1.76926C105.149 0.760035 106.86 0.760034 107.997 1.76926L125.435 17.2569C127.498 19.0891 126.202 22.5 123.443 22.5H88.5661C85.8069 22.5 84.5109 19.0891 86.5739 17.2569L104.013 1.76926Z" fill="black"/>
<path id="Polygon 6" d="M139.243 1.76926C140.379 0.760035 142.09 0.760034 143.227 1.76926L160.665 17.2569C162.728 19.0891 161.433 22.5 158.673 22.5H123.796C121.037 22.5 119.741 19.0891 121.804 17.2569L139.243 1.76926Z" fill="black"/>
<path id="Polygon 7" d="M174.473 1.76926C175.609 0.760035 177.321 0.760034 178.457 1.76926L195.896 17.2569C197.959 19.0891 196.663 22.5 193.903 22.5H159.026C156.267 22.5 154.971 19.0891 157.034 17.2569L174.473 1.76926Z" fill="black"/>
<path id="Polygon 8" d="M209.703 1.76926C210.839 0.760035 212.551 0.760034 213.687 1.76926L231.126 17.2569C233.189 19.0891 231.893 22.5 229.133 22.5H194.256C191.497 22.5 190.201 19.0891 192.264 17.2569L209.703 1.76926Z" fill="black"/>
<path id="Polygon 9" d="M244.933 1.76926C246.069 0.760035 247.781 0.760034 248.917 1.76926L266.356 17.2569C268.419 19.0891 267.123 22.5 264.363 22.5H229.486C226.727 22.5 225.431 19.0891 227.494 17.2569L244.933 1.76926Z" fill="black"/>
<path id="Polygon 10" d="M280.163 1.76926C281.299 0.760035 283.011 0.760034 284.147 1.76926L301.586 17.2569C303.649 19.0891 302.353 22.5 299.594 22.5H264.716C261.957 22.5 260.661 19.0891 262.724 17.2569L280.163 1.76926Z" fill="black"/>
<path id="Polygon 11" d="M315.393 1.76926C316.529 0.760035 318.241 0.760034 319.377 1.76926L336.816 17.2569C338.879 19.0891 337.583 22.5 334.824 22.5H299.946C297.187 22.5 295.891 19.0891 297.954 17.2569L315.393 1.76926Z" fill="black"/>
<path id="Polygon 12" d="M350.623 1.76926C351.759 0.760035 353.471 0.760034 354.607 1.76926L372.046 17.2569C374.109 19.0891 372.813 22.5 370.054 22.5H335.176C332.417 22.5 331.121 19.0891 333.184 17.2569L350.623 1.76926Z" fill="black"/>
<path id="Polygon 13" d="M385.853 1.76926C386.989 0.760035 388.701 0.760034 389.837 1.76926L407.276 17.2569C409.339 19.0891 408.043 22.5 405.284 22.5H370.406C367.647 22.5 366.351 19.0891 368.414 17.2569L385.853 1.76926Z" fill="black"/>
<path id="Polygon 14" d="M421.083 1.76926C422.219 0.760035 423.931 0.760034 425.067 1.76926L442.506 17.2569C444.569 19.0891 443.273 22.5 440.514 22.5H405.636C402.877 22.5 401.581 19.0891 403.644 17.2569L421.083 1.76926Z" fill="black"/>
<path id="Polygon 15" d="M456.313 1.76926C457.449 0.760035 459.161 0.760034 460.297 1.76926L477.736 17.2569C479.799 19.0891 478.503 22.5 475.744 22.5H440.867C438.107 22.5 436.811 19.0891 438.874 17.2569L456.313 1.76926Z" fill="black"/>
<path id="Polygon 16" d="M491.543 1.76926C492.679 0.760035 494.391 0.760034 495.527 1.76926L512.966 17.2569C515.029 19.0891 513.733 22.5 510.974 22.5H476.097C473.337 22.5 472.041 19.0891 474.104 17.2569L491.543 1.76926Z" fill="black"/>
<path id="Polygon 17" d="M526.773 1.76926C527.909 0.760035 529.621 0.760034 530.757 1.76926L548.196 17.2569C550.259 19.0891 548.963 22.5 546.204 22.5H511.327C508.567 22.5 507.271 19.0891 509.334 17.2569L526.773 1.76926Z" fill="black"/>
<path id="Polygon 18" d="M562.003 1.76926C563.14 0.760035 564.851 0.760034 565.987 1.76926L583.426 17.2569C585.489 19.0891 584.193 22.5 581.434 22.5H546.557C543.798 22.5 542.502 19.0891 544.565 17.2569L562.003 1.76926Z" fill="black"/>
<path id="Polygon 19" d="M597.233 1.76926C598.37 0.760035 600.081 0.760034 601.217 1.76926L618.656 17.2569C620.719 19.0891 619.423 22.5 616.664 22.5H581.787C579.028 22.5 577.732 19.0891 579.795 17.2569L597.233 1.76926Z" fill="black"/>
<path id="Polygon 20" d="M632.463 1.76926C633.6 0.760035 635.311 0.760034 636.447 1.76926L653.886 17.2569C655.949 19.0891 654.653 22.5 651.894 22.5H617.017C614.258 22.5 612.962 19.0891 615.025 17.2569L632.463 1.76926Z" fill="black"/>
</g>
<g id="Group 3">
<path id="Polygon 2_2" d="M666.552 1.76926C667.689 0.760035 669.4 0.760034 670.537 1.76926L687.975 17.2569C690.038 19.0891 688.742 22.5 685.983 22.5H651.106C648.347 22.5 647.051 19.0891 649.114 17.2569L666.552 1.76926Z" fill="black"/>
<path id="Polygon 4_2" d="M701.783 1.76926C702.919 0.760035 704.63 0.760034 705.767 1.76926L723.205 17.2569C725.268 19.0891 723.972 22.5 721.213 22.5H686.336C683.577 22.5 682.281 19.0891 684.344 17.2569L701.783 1.76926Z" fill="black"/>
<path id="Polygon 5_2" d="M737.013 1.76926C738.149 0.760035 739.86 0.760034 740.997 1.76926L758.435 17.2569C760.498 19.0891 759.202 22.5 756.443 22.5H721.566C718.807 22.5 717.511 19.0891 719.574 17.2569L737.013 1.76926Z" fill="black"/>
<path id="Polygon 6_2" d="M772.243 1.76926C773.379 0.760035 775.09 0.760034 776.227 1.76926L793.665 17.2569C795.728 19.0891 794.433 22.5 791.673 22.5H756.796C754.037 22.5 752.741 19.0891 754.804 17.2569L772.243 1.76926Z" fill="black"/>
<path id="Polygon 7_2" d="M807.473 1.76926C808.609 0.760035 810.321 0.760034 811.457 1.76926L828.896 17.2569C830.959 19.0891 829.663 22.5 826.903 22.5H792.026C789.267 22.5 787.971 19.0891 790.034 17.2569L807.473 1.76926Z" fill="black"/>
<path id="Polygon 8_2" d="M842.703 1.76926C843.839 0.760035 845.551 0.760034 846.687 1.76926L864.126 17.2569C866.189 19.0891 864.893 22.5 862.133 22.5H827.256C824.497 22.5 823.201 19.0891 825.264 17.2569L842.703 1.76926Z" fill="black"/>
<path id="Polygon 9_2" d="M877.933 1.76926C879.069 0.760035 880.781 0.760034 881.917 1.76926L899.356 17.2569C901.419 19.0891 900.123 22.5 897.363 22.5H862.486C859.727 22.5 858.431 19.0891 860.494 17.2569L877.933 1.76926Z" fill="black"/>
<path id="Polygon 10_2" d="M913.163 1.76926C914.299 0.760035 916.011 0.760034 917.147 1.76926L934.586 17.2569C936.649 19.0891 935.353 22.5 932.594 22.5H897.716C894.957 22.5 893.661 19.0891 895.724 17.2569L913.163 1.76926Z" fill="black"/>
<path id="Polygon 11_2" d="M948.393 1.76926C949.529 0.760035 951.241 0.760034 952.377 1.76926L969.816 17.2569C971.879 19.0891 970.583 22.5 967.824 22.5H932.946C930.187 22.5 928.891 19.0891 930.954 17.2569L948.393 1.76926Z" fill="black"/>
<path id="Polygon 12_2" d="M983.623 1.76926C984.759 0.760035 986.471 0.760034 987.607 1.76926L1005.05 17.2569C1007.11 19.0891 1005.81 22.5 1003.05 22.5H968.176C965.417 22.5 964.121 19.0891 966.184 17.2569L983.623 1.76926Z" fill="black"/>
<path id="Polygon 13_2" d="M1018.85 1.76926C1019.99 0.760035 1021.7 0.760034 1022.84 1.76926L1040.28 17.2569C1042.34 19.0891 1041.04 22.5 1038.28 22.5H1003.41C1000.65 22.5 999.351 19.0891 1001.41 17.2569L1018.85 1.76926Z" fill="black"/>
<path id="Polygon 14_2" d="M1054.08 1.76926C1055.22 0.760035 1056.93 0.760034 1058.07 1.76926L1075.51 17.2569C1077.57 19.0891 1076.27 22.5 1073.51 22.5H1038.64C1035.88 22.5 1034.58 19.0891 1036.64 17.2569L1054.08 1.76926Z" fill="black"/>
<path id="Polygon 15_2" d="M1089.31 1.76926C1090.45 0.760035 1092.16 0.760034 1093.3 1.76926L1110.74 17.2569C1112.8 19.0891 1111.5 22.5 1108.74 22.5H1073.87C1071.11 22.5 1069.81 19.0891 1071.87 17.2569L1089.31 1.76926Z" fill="black"/>
<path id="Polygon 16_2" d="M1124.54 1.76926C1125.68 0.760035 1127.39 0.760034 1128.53 1.76926L1145.97 17.2569C1148.03 19.0891 1146.73 22.5 1143.97 22.5H1109.1C1106.34 22.5 1105.04 19.0891 1107.1 17.2569L1124.54 1.76926Z" fill="black"/>
<path id="Polygon 17_2" d="M1159.77 1.76926C1160.91 0.760035 1162.62 0.760034 1163.76 1.76926L1181.2 17.2569C1183.26 19.0891 1181.96 22.5 1179.2 22.5H1144.33C1141.57 22.5 1140.27 19.0891 1142.33 17.2569L1159.77 1.76926Z" fill="black"/>
<path id="Polygon 18_2" d="M1195 1.76926C1196.14 0.760035 1197.85 0.760034 1198.99 1.76926L1216.43 17.2569C1218.49 19.0891 1217.19 22.5 1214.43 22.5H1179.56C1176.8 22.5 1175.5 19.0891 1177.56 17.2569L1195 1.76926Z" fill="black"/>
<path id="Polygon 19_2" d="M1230.23 1.76926C1231.37 0.760035 1233.08 0.760034 1234.22 1.76926L1251.66 17.2569C1253.72 19.0891 1252.42 22.5 1249.66 22.5H1214.79C1212.03 22.5 1210.73 19.0891 1212.79 17.2569L1230.23 1.76926Z" fill="black"/>
<path id="Polygon 20_2" d="M1265.46 1.76926C1266.6 0.760035 1268.31 0.760034 1269.45 1.76926L1286.89 17.2569C1288.95 19.0891 1287.65 22.5 1284.89 22.5H1250.02C1247.26 22.5 1245.96 19.0891 1248.02 17.2569L1265.46 1.76926Z" fill="black"/>
</g>
<g id="Group 4">
<path id="Polygon 17_3" d="M1296.48 1.76926C1297.62 0.760035 1299.33 0.760034 1300.47 1.76926L1317.9 17.2569C1319.97 19.0891 1318.67 22.5 1315.91 22.5H1281.04C1278.28 22.5 1276.98 19.0891 1279.04 17.2569L1296.48 1.76926Z" fill="black"/>
<path id="Polygon 18_3" d="M1331.71 1.76926C1332.85 0.760035 1334.56 0.760034 1335.7 1.76926L1353.14 17.2569C1355.2 19.0891 1353.9 22.5 1351.14 22.5H1316.27C1313.51 22.5 1312.21 19.0891 1314.27 17.2569L1331.71 1.76926Z" fill="black"/>
<path id="Polygon 19_3" d="M1366.94 1.76926C1368.08 0.760035 1369.79 0.760034 1370.93 1.76926L1388.37 17.2569C1390.43 19.0891 1389.13 22.5 1386.37 22.5H1351.5C1348.74 22.5 1347.44 19.0891 1349.5 17.2569L1366.94 1.76926Z" fill="black"/>
<path id="Polygon 20_3" d="M1402.17 1.76926C1403.31 0.760035 1405.02 0.760034 1406.16 1.76926L1423.6 17.2569C1425.66 19.0891 1424.36 22.5 1421.6 22.5H1386.73C1383.97 22.5 1382.67 19.0891 1384.73 17.2569L1402.17 1.76926Z" fill="black"/>
<path id="Polygon 3" d="M1434.73 4.3591C1436.67 2.66034 1439.71 4.03762 1439.71 6.61582L1439.71 19.5926C1439.71 21.2495 1438.37 22.5926 1436.71 22.5926H1421.89C1419.12 22.5926 1417.83 19.1606 1419.92 17.3359L1434.73 4.3591Z" fill="black"/>
</g>
<rect id="Rectangle 1" y="20" width="1504" height="1933" fill="black"/>
</g>
<defs>
<clipPath id="clip0_1_3">
<rect width="1440" height="1667" fill="white"/>
</clipPath>
</defs>
</svg>
